<svg width="12" height="12" viewBox="0 0 12 12" fill="none" xmlns="http://www.w3.org/2000/svg">
<path fill-rule="evenodd" clip-rule="evenodd" d="M6.24337 11.8967C6.1054 12.0348 5.88136 12.0341 5.74462 11.8967L0.109653 6.23528C-0.222839 5.90318 0.275899 5.40528 0.608152 5.73737L5.3976 10.5209C5.53556 10.659 5.64746 10.6152 5.64746 10.418L5.64746 0.352244C5.64746 0.201424 5.74337 0.0751669 5.87667 0.0250551C5.91184 0.00933426 5.95463 0 5.99988 0C6.19466 0 6.35254 0.157944 6.35254 0.352247L6.35254 10.418C6.35254 10.6128 6.46247 10.6607 6.60241 10.5209L11.3919 5.73738C11.7241 5.40528 12.2228 5.90318 11.8904 6.23529L6.24337 11.8967Z" fill="#3100F5"/>
</svg>
