<svg width="31" height="55" viewBox="0 0 31 55" fill="none" xmlns="http://www.w3.org/2000/svg">
<rect x="0.5" y="53.6211" width="53" height="30" transform="rotate(-90 0.5 53.6211)" stroke="#3D3D3D"/>
<path d="M9.28423 31.0269L9.3625 30.8711C9.58159 30.3574 12.2733 29.579 12.4924 29.5634L12.6645 29.579C12.9932 29.6412 13.3531 29.937 14.0573 30.5442C14.1982 30.6687 14.386 30.6999 14.5582 30.6064C15.4815 30.0926 16.6082 29.0651 17.1716 28.4424C17.782 27.773 18.5175 26.6676 18.8618 25.7802C18.9243 25.6089 18.8618 25.4221 18.7366 25.2976C17.9385 24.5814 17.5942 24.239 17.5629 23.8653C17.5473 23.6474 18.0167 20.8918 18.5019 20.6271L18.6427 20.5337C18.9557 20.3313 19.4252 20.0355 19.9416 20.1445C20.0668 20.1757 20.192 20.2224 20.3015 20.2846C20.6457 20.5028 21.5065 21.0944 21.8977 21.8572C22.1324 22.3398 22.242 26.7145 18.9556 30.4041C15.7005 34.0627 11.6786 34.2183 11.0839 34.0938H11.0683L11.0214 34.0783C10.2076 33.7824 9.51895 33.0197 9.25294 32.6927C8.76783 32.1167 9.0964 31.416 9.28427 31.0268L9.28423 31.0269Z" fill="#4974FE"/>
</svg>
