<svg width="27" height="27" viewBox="0 0 27 27" fill="none" xmlns="http://www.w3.org/2000/svg">
<path d="M21.1345 4.34254C20.8426 4.33857 20.5562 4.42123 20.3113 4.58005C20.0665 4.73888 19.8742 4.96674 19.7588 5.23483C19.6435 5.50292 19.6102 5.7992 19.6632 6.0862C19.7162 6.3732 19.8532 6.63804 20.0567 6.84722C20.2602 7.0564 20.5212 7.20054 20.8067 7.2614C21.0921 7.32226 21.3892 7.29711 21.6603 7.18914C21.9315 7.08117 22.1645 6.89522 22.33 6.6548C22.4955 6.41439 22.5859 6.1303 22.59 5.83847V5.79804C22.5864 5.41311 22.432 5.04494 22.1598 4.77274C21.8876 4.50054 21.5194 4.34606 21.1345 4.34254Z" stroke="#3D3D3D" stroke-linecap="round" stroke-linejoin="round"/>
<path d="M24.6182 1.00043H2.31399C1.96244 1.00922 1.62824 1.15508 1.38274 1.40688C1.13724 1.65867 0.99989 1.99645 1 2.34812V24.6523C1 25.0097 1.14199 25.3525 1.39473 25.6053C1.64747 25.858 1.99026 26 2.34769 26H24.6519C25.0093 26 25.3521 25.858 25.6048 25.6053C25.8576 25.3525 25.9996 25.0097 25.9996 24.6523V2.31443C25.9952 2.13743 25.956 1.96303 25.8842 1.80118C25.8124 1.63934 25.7094 1.49324 25.5811 1.37121C25.4529 1.24918 25.3018 1.15363 25.1366 1.09001C24.9713 1.02639 24.7952 0.995951 24.6182 1.00043V1.00043Z" stroke="#3D3D3D" stroke-linecap="round" stroke-linejoin="round"/>
<path d="M13.4661 7.88678C12.3626 7.88678 11.2839 8.21401 10.3664 8.82708C9.44885 9.44015 8.73372 10.3115 8.31143 11.331C7.88914 12.3506 7.77865 13.4724 7.99393 14.5547C8.20921 15.637 8.7406 16.6311 9.52089 17.4114C10.3012 18.1917 11.2953 18.7231 12.3776 18.9384C13.46 19.1537 14.5818 19.0432 15.6013 18.6209C16.6208 18.1986 17.4922 17.4835 18.1053 16.566C18.7183 15.6484 19.0456 14.5697 19.0456 13.4662V13.4662C19.0456 11.9864 18.4577 10.5673 17.4114 9.52095C16.365 8.47461 14.9459 7.88678 13.4661 7.88678V7.88678Z" stroke="#3D3D3D" stroke-linecap="round" stroke-linejoin="round"/>
</svg>
