<svg width="150" height="23" viewBox="0 0 150 23" fill="none" xmlns="http://www.w3.org/2000/svg">
<path fill-rule="evenodd" clip-rule="evenodd" d="M13.9088 0C15.5933 0 17.0816 0.323084 18.3735 0.969255C19.6653 1.61543 20.6651 2.53922 21.3727 3.74063C22.0798 4.94171 22.4336 6.33602 22.4342 7.92353C22.4349 9.51104 22.0811 10.8995 21.3727 12.0889C20.6662 13.2783 19.6657 14.1964 18.3714 14.8432C17.0772 15.49 15.5896 15.8129 13.9088 15.8119H10.1554V21.7955H5.10095V11.5599H13.4372C14.6269 11.5599 15.5704 11.2311 16.2678 10.5736C16.9653 9.91602 17.3133 9.03201 17.312 7.92152C17.312 6.78763 16.9639 5.89208 16.2678 5.23489C15.5717 4.57768 14.6281 4.24891 13.4372 4.24858H5.10095V0H13.9088ZM41.2043 4.31677V21.7955H36.992L36.5536 19.6894C35.9729 20.3937 35.2503 20.9719 34.4311 21.3878C33.6222 21.7956 32.6336 21.9995 31.4654 21.9995C29.4435 21.9995 27.7922 21.3705 26.5119 20.1122C25.2316 18.8539 24.5914 16.7512 24.5914 13.8043V4.31677H29.343V13.2261C29.343 14.8101 29.6183 16.0085 30.1684 16.8138C30.7185 17.6191 31.5669 18.0207 32.7125 18.0207C33.9021 18.0207 34.8232 17.5731 35.4758 16.6779C36.1283 15.7827 36.4542 14.5301 36.4531 12.9203V4.31677H41.2043ZM44.0012 4.31677H58.6599V7.58105L49.9994 17.749H59.0642V21.7955H43.5969V18.5297L52.2569 8.36278H44.0012V4.31677ZM61.6251 4.31677H76.2838V7.58105L67.6212 17.749H76.6861V21.7955H61.2209V18.5297L69.8813 8.36278H61.6251V4.31677ZM79.0813 0H83.8339V21.7955H79.0828V0H79.0813ZM86.1236 13.0902C86.1236 11.2767 86.4889 9.69556 87.2192 8.34673C87.9497 6.99789 88.9719 5.95509 90.2858 5.21834C91.5988 4.48291 93.1209 4.1152 94.8519 4.1152C96.6044 4.1152 98.1488 4.46102 99.4853 5.15265C100.791 5.81507 101.878 6.82938 102.619 8.07697C103.372 9.33555 103.767 10.8152 103.782 12.5146C103.79 13.0616 103.745 13.6082 103.647 14.1468H91.0776V14.2831C91.0696 15.3979 91.5048 16.4716 92.2905 17.2751C92.9856 17.9999 93.9404 18.3626 95.1547 18.3632C96.1207 18.3632 96.9241 18.1536 97.5648 17.7345C98.2031 17.3158 98.6262 16.6969 98.8282 15.8792H103.513C103.343 17.012 102.891 18.0862 102.199 19.007C101.504 19.9356 100.58 20.6692 99.4358 21.2008C98.2918 21.7323 96.9759 22 95.4933 22C93.561 22 91.8929 21.6373 90.4888 20.912C89.0846 20.1866 88.0065 19.1503 87.2539 17.8031C86.5025 16.4556 86.126 14.8857 86.1246 13.0932L86.1236 13.0902ZM99.0306 11.0163C98.8734 9.95096 98.441 9.12896 97.7331 8.55031C97.025 7.97167 96.1319 7.68268 95.0539 7.68334C94.0209 7.68334 93.1503 7.98421 92.4419 8.58591C91.7336 9.18763 91.3125 9.99826 91.1786 11.0178L99.0306 11.0163Z" fill="#3D3D3D"/>
<path d="M5.10088 4.23975H0V11.5455H5.10088V4.23975Z" fill="#3D3D3D"/>
<path fill-rule="evenodd" clip-rule="evenodd" d="M108.233 0.718169H109.78C110.191 0.709846 110.598 0.805861 110.961 0.996962C111.294 1.17489 111.569 1.4446 111.749 1.77317C111.932 2.12507 112.027 2.51443 112.027 2.90939C112.027 3.30436 111.932 3.69373 111.749 4.04563C111.568 4.37395 111.294 4.64345 110.961 4.82134C110.598 5.01243 110.191 5.10845 109.78 5.10012H108.233V0.718169ZM109.78 4.31741C110.183 4.31741 110.496 4.18921 110.718 3.93281C110.941 3.67642 111.052 3.33511 111.053 2.9089C111.053 2.48369 110.941 2.14271 110.718 1.88599C110.495 1.62926 110.183 1.5009 109.78 1.5009H109.188V4.31741H109.78ZM112.827 0.718169H113.781V5.10012H112.827V0.718169ZM114.575 2.9089C114.575 2.46263 114.664 2.07152 114.842 1.73557C115.013 1.40703 115.279 1.13582 115.607 0.956346C115.941 0.772825 116.331 0.680897 116.78 0.680562C117.107 0.675466 117.432 0.744071 117.728 0.881132C118 1.00786 118.233 1.20191 118.406 1.44423C118.579 1.69177 118.688 1.97803 118.721 2.2771H117.779C117.73 2.04818 117.604 1.84207 117.422 1.69193C117.232 1.54395 116.995 1.46732 116.753 1.47582C116.525 1.47062 116.301 1.53394 116.11 1.65734C115.924 1.78306 115.778 1.95908 115.69 2.16428C115.589 2.3997 115.539 2.65336 115.544 2.9089C115.544 3.33912 115.651 3.68561 115.865 3.94835C116.079 4.2111 116.375 4.34247 116.753 4.34247C117.015 4.34692 117.272 4.26912 117.485 4.12034C117.698 3.97259 117.825 3.75447 117.867 3.46598V3.40983H116.759V2.6652H118.757V5.10012H118.095L117.993 4.55559C117.852 4.7337 117.671 4.87722 117.465 4.97478C117.224 5.08744 116.96 5.14325 116.694 5.13773C116.305 5.14544 115.922 5.05018 115.583 4.86196C115.263 4.67827 115.004 4.40634 114.839 4.07972C114.657 3.71585 114.566 3.31433 114.575 2.9089H114.575ZM119.735 0.718169H120.69V5.10012H119.735V0.718169ZM121.417 0.718169H124.943V1.52596H123.658V5.10012H122.703V1.52596H121.417V0.718169ZM124.687 5.10012H125.674L126.017 4.14241H127.71L128.054 5.10012H129.079L127.462 0.718169H126.316L124.685 5.10012H124.687ZM126.274 3.38676L126.86 1.72202L127.452 3.38676H126.274ZM129.702 5.10213V0.718169H130.658V4.29233H132.427V5.10012L129.702 5.10213ZM110.047 6.99251C110.338 6.98676 110.627 7.04806 110.891 7.17152C111.126 7.28299 111.323 7.46038 111.457 7.68147C111.589 7.91695 111.658 8.18125 111.658 8.4499C111.658 8.71855 111.589 8.98285 111.457 9.21834C111.323 9.43797 111.126 9.61418 110.891 9.72528C110.627 9.84818 110.338 9.90913 110.047 9.90328H109.188V11.3745H108.233V6.9905L110.047 6.99251ZM109.188 9.12106H109.958C110.183 9.12106 110.361 9.06056 110.492 8.93955C110.559 8.87665 110.611 8.80054 110.645 8.71631C110.679 8.6321 110.694 8.54169 110.69 8.45116C110.69 8.24256 110.624 8.07777 110.492 7.95676C110.361 7.83575 110.183 7.77523 109.958 7.77523H109.188V9.12106ZM114.22 6.9905C114.515 6.9848 114.808 7.04605 115.076 7.16951C115.315 7.28008 115.515 7.45747 115.652 7.67946C115.791 7.91254 115.862 8.17897 115.856 8.44915C115.861 8.71039 115.79 8.96762 115.652 9.19076C115.517 9.40459 115.323 9.57532 115.091 9.68215L115.969 11.3725H114.913L114.169 9.90128H113.36V11.3725H112.405V6.9905H114.22ZM113.36 9.11906H114.143C114.368 9.11906 114.547 9.05855 114.681 8.93754C114.748 8.87544 114.801 8.79984 114.836 8.71592C114.871 8.63199 114.887 8.5417 114.883 8.45116C114.883 8.24256 114.816 8.07777 114.682 7.95676C114.549 7.83575 114.369 7.77523 114.144 7.77523H113.361V9.12106L113.36 9.11906ZM120.881 9.18173C120.887 9.57972 120.791 9.97273 120.601 10.3245C120.422 10.6573 120.15 10.9337 119.818 11.1223C119.467 11.3111 119.073 11.4101 118.673 11.4101C118.272 11.4101 117.879 11.3111 117.527 11.1223C117.196 10.9335 116.925 10.6572 116.745 10.3245C116.56 9.97085 116.465 9.57927 116.465 9.18199C116.465 8.78471 116.56 8.39312 116.745 8.03948C116.924 7.70656 117.196 7.42996 117.527 7.24121C117.879 7.05237 118.272 6.95339 118.673 6.95339C119.073 6.95339 119.467 7.05237 119.818 7.24121C120.15 7.42981 120.422 7.70643 120.601 8.03948C120.791 8.39102 120.887 8.7839 120.881 9.18173ZM117.438 9.18173C117.434 9.43596 117.486 9.68807 117.591 9.92033C117.684 10.1269 117.834 10.3036 118.024 10.4303C118.217 10.5511 118.441 10.6153 118.67 10.6153C118.899 10.6153 119.123 10.5511 119.316 10.4303C119.506 10.3036 119.656 10.1269 119.749 9.92033C119.849 9.68674 119.901 9.43554 119.901 9.18173C119.901 8.92793 119.849 8.67672 119.749 8.44314C119.656 8.23657 119.506 8.05986 119.316 7.93319C119.123 7.81236 118.899 7.74818 118.67 7.74818C118.441 7.74818 118.217 7.81236 118.024 7.93319C117.834 8.05986 117.684 8.23657 117.591 8.44314C117.486 8.6754 117.434 8.92751 117.438 9.18173ZM121.675 6.9905H123.222C123.633 6.98245 124.039 7.07845 124.402 7.2693C124.736 7.44722 125.01 7.71694 125.191 8.0455C125.373 8.39741 125.468 8.78677 125.468 9.18173C125.468 9.5767 125.373 9.96605 125.191 10.318C125.01 10.6463 124.736 10.9158 124.402 11.0937C124.04 11.2848 123.633 11.3808 123.222 11.3725H121.675V6.9905ZM123.222 10.5902C123.625 10.5902 123.938 10.4619 124.161 10.2051C124.384 9.94841 124.495 9.60727 124.495 9.18173C124.495 8.75585 124.383 8.41472 124.161 8.15832C123.938 7.90193 123.625 7.77357 123.222 7.77323H122.632V10.5902H123.222ZM127.191 6.9905V9.53222C127.191 9.88657 127.261 10.154 127.401 10.3345C127.541 10.515 127.762 10.6048 128.064 10.6038C128.365 10.6038 128.586 10.514 128.727 10.3345C128.867 10.155 128.939 9.88757 128.94 9.53222V6.9905H129.895V9.48209C129.895 10.1085 129.738 10.5864 129.427 10.9157C129.115 11.2449 128.66 11.4096 128.064 11.4096C127.466 11.4096 127.012 11.2448 126.702 10.9152C126.392 10.5856 126.237 10.1077 126.237 9.48158V6.9905H127.191ZM130.664 9.18173C130.664 8.73514 130.752 8.34385 130.928 8.00789C131.097 7.68028 131.361 7.40913 131.686 7.22867C132.014 7.04516 132.402 6.9534 132.848 6.9534C133.172 6.94825 133.491 7.01691 133.783 7.15397C134.052 7.28139 134.282 7.47568 134.452 7.71757C134.624 7.96708 134.73 8.2558 134.757 8.55645H133.803C133.76 8.32599 133.637 8.11711 133.456 7.96477C133.27 7.81741 133.036 7.74072 132.797 7.74865C132.441 7.74865 132.159 7.88019 131.951 8.14327C131.743 8.40635 131.639 8.75267 131.639 9.18223C131.639 9.60811 131.743 9.95342 131.951 10.2182C132.159 10.4829 132.441 10.6155 132.797 10.6158C133.036 10.6238 133.27 10.5471 133.456 10.3997C133.637 10.2473 133.76 10.0385 133.803 9.80801H134.757C134.73 10.1087 134.625 10.3974 134.452 10.6469C134.282 10.8885 134.052 11.0826 133.783 11.21C133.492 11.3473 133.172 11.416 132.848 11.4106C132.402 11.4106 132.016 11.3186 131.686 11.1348C131.361 10.9549 131.097 10.684 130.929 10.3566C130.753 10.0223 130.666 9.63118 130.666 9.18323L130.664 9.18173ZM135.08 6.9905H138.605V7.7993H137.32V11.3735H136.366V7.7993H135.08V6.9905ZM139.342 6.9905H140.297V11.3725H139.342V6.9905ZM145.508 9.18173C145.513 9.57969 145.417 9.97268 145.228 10.3245C145.047 10.6572 144.777 10.9336 144.445 11.1223C144.093 11.3111 143.7 11.4101 143.299 11.4101C142.898 11.4101 142.505 11.3111 142.153 11.1223C141.822 10.9336 141.551 10.6572 141.371 10.3245C141.186 9.97085 141.091 9.57927 141.091 9.18199C141.091 8.78471 141.186 8.39312 141.371 8.03948C141.551 7.70652 141.821 7.42993 142.153 7.24121C142.505 7.05237 142.898 6.95339 143.299 6.95339C143.7 6.95339 144.093 7.05237 144.445 7.24121C144.777 7.42993 145.047 7.70652 145.228 8.03948C145.417 8.39106 145.513 8.78393 145.508 9.18173ZM142.064 9.18173C142.06 9.43596 142.112 9.68807 142.217 9.92033C142.31 10.1269 142.46 10.3036 142.65 10.4303C142.843 10.5511 143.068 10.6153 143.297 10.6153C143.525 10.6153 143.749 10.5511 143.942 10.4303C144.132 10.3034 144.282 10.1267 144.375 9.92033C144.476 9.68666 144.528 9.43549 144.528 9.18173C144.528 8.92798 144.476 8.67681 144.375 8.44314C144.282 8.23665 144.132 8.05996 143.942 7.93319C143.749 7.81236 143.525 7.74818 143.297 7.74818C143.068 7.74818 142.843 7.81236 142.65 7.93319C142.46 8.05968 142.31 8.23645 142.217 8.44314C142.112 8.6754 142.06 8.92751 142.064 9.18173ZM146.302 11.3725V6.9905H147.168L149.059 9.75135V6.9905H150V11.3725H149.128L147.238 8.61212V11.3725H146.302Z" fill="#3D3D3D"/>
</svg>
