<svg width="27" height="18" viewBox="0 0 27 18" fill="none" xmlns="http://www.w3.org/2000/svg">
<path fill-rule="evenodd" clip-rule="evenodd" d="M11.7819 3.7034L15.2182 0V7.41176L11.7819 3.7034Z" fill="#3D3D3D"/>
<path fill-rule="evenodd" clip-rule="evenodd" d="M15.2182 14.2918L11.7819 18.0001V10.5884L15.2182 14.2918Z" fill="#3D3D3D"/>
<path fill-rule="evenodd" clip-rule="evenodd" d="M13.6844 13.6684C13.9888 13.6684 14.2364 13.9274 14.2364 14.2458C14.2364 14.5643 13.9888 14.8233 13.6844 14.8233H5.56558C4.08522 14.8233 2.68221 14.208 1.63512 13.1124C0.588026 12.0168 0 10.5488 0 8.9998C0 7.45079 0.588026 5.98279 1.63512 4.88717C2.68221 3.79155 4.08522 3.17627 5.56558 3.17627H8.95963V4.32587H5.56558C4.37923 4.32587 3.25476 4.8224 2.41399 5.69675C1.57322 6.57647 1.10383 7.75303 1.10383 8.9944C1.10383 10.2358 1.57838 11.4123 2.41399 12.2921C3.25476 13.1718 4.37923 13.663 5.56558 13.663H13.6844V13.6684Z" fill="#3D3D3D"/>
<path fill-rule="evenodd" clip-rule="evenodd" d="M13.314 4.33126C13.0106 4.33126 12.7637 4.0722 12.7637 3.75376C12.7637 3.43533 13.0106 3.17627 13.314 3.17627H21.4505C22.9266 3.17627 24.3256 3.79155 25.3696 4.88717C26.4137 5.98279 27 7.45079 27 8.9998C27 10.5488 26.4137 12.0168 25.3696 13.1124C24.3256 14.208 22.9266 14.8233 21.4505 14.8233H18.0663V13.6737H21.4505C22.6334 13.6737 23.7547 13.1772 24.593 12.3029C25.4314 11.4231 25.8994 10.2466 25.8994 9.0052C25.8994 7.76383 25.4262 6.58727 24.593 5.70755C23.7547 4.8278 22.6334 4.33666 21.4505 4.33666H13.314V4.33126Z" fill="#3D3D3D"/>
</svg>
