<svg width="188" height="196" viewBox="0 0 188 196" fill="none" xmlns="http://www.w3.org/2000/svg">
<circle cx="68" cy="129" r="66.5" stroke="white"/>
<g filter="url(#filter0_d_452_3)">
<path d="M136.483 58.9623C146.352 70.424 151.265 85.3371 150.139 100.421C149.013 115.504 141.942 129.523 130.48 139.393C119.018 149.263 104.105 154.175 89.0216 153.05C73.9379 151.924 59.9192 144.852 50.0494 133.39L55.0973 129.044C63.8143 139.167 76.1955 145.412 89.5174 146.406C102.839 147.401 116.01 143.062 126.133 134.345C136.256 125.628 142.502 113.247 143.496 99.925C144.49 86.6032 140.152 73.432 131.435 63.3091L136.483 58.9623Z" fill="url(#paint0_linear_452_3)"/>
</g>
<path d="M135.662 54.6242C140.714 60.089 144.641 66.4955 147.218 73.4779C149.794 80.4602 150.971 87.8818 150.679 95.3187C150.388 102.756 148.634 110.062 145.519 116.822C142.404 123.581 137.987 129.66 132.523 134.713C127.058 139.766 120.651 143.692 113.669 146.269C106.687 148.846 99.265 150.022 91.8281 149.73C84.3912 149.439 77.0845 147.685 70.3252 144.57C63.5659 141.455 57.4864 137.039 52.4338 131.574L94.0478 93.099L135.662 54.6242Z" fill="white"/>
<defs>
<filter id="filter0_d_452_3" x="26.0494" y="38.9619" width="160.248" height="154.246" filterUnits="userSpaceOnUse" color-interpolation-filters="sRGB">
<feFlood flood-opacity="0" result="BackgroundImageFix"/>
<feColorMatrix in="SourceAlpha" type="matrix" values="0 0 0 0 0 0 0 0 0 0 0 0 0 0 0 0 0 0 127 0" result="hardAlpha"/>
<feOffset dx="6" dy="10"/>
<feGaussianBlur stdDeviation="15"/>
<feComposite in2="hardAlpha" operator="out"/>
<feColorMatrix type="matrix" values="0 0 0 0 0 0 0 0 0 0 0 0 0 0 0 0 0 0 0.4 0"/>
<feBlend mode="normal" in2="BackgroundImageFix" result="effect1_dropShadow_452_3"/>
<feBlend mode="normal" in="SourceGraphic" in2="effect1_dropShadow_452_3" result="shape"/>
</filter>
<linearGradient id="paint0_linear_452_3" x1="56.0519" y1="52.9597" x2="130.48" y2="139.393" gradientUnits="userSpaceOnUse">
<stop stop-color="#D4D4D4"/>
<stop offset="0.313079" stop-color="white"/>
<stop offset="1" stop-color="#CCCCCC"/>
</linearGradient>
</defs>
</svg>
