<svg width="453" height="22" viewBox="0 0 453 22" fill="none" xmlns="http://www.w3.org/2000/svg">
<rect width="40" height="4" rx="2" transform="matrix(0.869527 -0.493885 0.869527 0.493885 128 19.9707)" fill="#4974FE"/>
<rect width="40" height="4" rx="2" transform="matrix(0.869527 -0.493885 0.869527 0.493885 64 19.9707)" fill="#4974FE"/>
<rect width="40" height="4" rx="2" transform="matrix(0.869527 -0.493885 0.869527 0.493885 0 19.9707)" fill="#4974FE"/>
<rect width="40" height="4" rx="2" transform="matrix(0.869527 -0.493885 0.869527 0.493885 191.122 19.9707)" fill="#4974FE"/>
<rect width="40" height="4" rx="2" transform="matrix(0.869527 -0.493885 0.869527 0.493885 255.243 19.9707)" fill="#4974FE"/>
<rect width="40" height="4" rx="2" transform="matrix(0.869527 -0.493885 0.869527 0.493885 318.365 19.9707)" fill="#4974FE"/>
<rect width="40" height="4" rx="2" transform="matrix(0.869527 -0.493885 0.869527 0.493885 382.486 19.9707)" fill="#4974FE"/>
<rect width="40" height="4" rx="2" transform="matrix(0.869527 0.493885 -0.869527 0.493885 163.219 0)" fill="#4974FE"/>
<rect width="40" height="4" rx="2" transform="matrix(0.869527 0.493885 -0.869527 0.493885 99.2188 0)" fill="#4974FE"/>
<rect width="40" height="4" rx="2" transform="matrix(0.869527 0.493885 -0.869527 0.493885 35.2188 0)" fill="#4974FE"/>
<rect width="40" height="4" rx="2" transform="matrix(0.869527 0.493885 -0.869527 0.493885 226.34 0)" fill="#4974FE"/>
<rect width="40" height="4" rx="2" transform="matrix(0.869527 0.493885 -0.869527 0.493885 290.462 0)" fill="#4974FE"/>
<rect width="40" height="4" rx="2" transform="matrix(0.869527 0.493885 -0.869527 0.493885 353.583 0)" fill="#4974FE"/>
<rect width="40" height="4" rx="2" transform="matrix(0.869527 0.493885 -0.869527 0.493885 417.705 0)" fill="#4974FE"/>
</svg>
