<svg width="190" height="16" viewBox="0 0 190 16" fill="none" xmlns="http://www.w3.org/2000/svg">
<rect width="29.1622" height="2.91622" rx="1.45811" transform="matrix(-0.869527 0.493885 -0.869527 -0.493885 190 1.44043)" fill="white"/>
<rect width="29.1622" height="2.91622" rx="1.45811" transform="matrix(-0.869527 0.493885 -0.869527 -0.493885 143.981 1.44043)" fill="white"/>
<rect width="29.1622" height="2.91622" rx="1.45811" transform="matrix(-0.869527 0.493885 -0.869527 -0.493885 97.2329 1.44043)" fill="white"/>
<rect width="29.1622" height="2.91622" rx="1.45811" transform="matrix(-0.869527 0.493885 -0.869527 -0.493885 51.2136 1.44043)" fill="white"/>
<rect width="29.1622" height="2.91622" rx="1.45811" transform="matrix(-0.869527 -0.493885 0.869527 -0.493885 164.324 16)" fill="white"/>
<rect width="29.1622" height="2.91622" rx="1.45811" transform="matrix(-0.869527 -0.493885 0.869527 -0.493885 118.305 16)" fill="white"/>
<rect width="29.1622" height="2.91622" rx="1.45811" transform="matrix(-0.869527 -0.493885 0.869527 -0.493885 71.5564 16)" fill="white"/>
<rect width="29.1622" height="2.91622" rx="1.45811" transform="matrix(-0.869527 -0.493885 0.869527 -0.493885 25.5374 16)" fill="white"/>
</svg>
