<svg width="190" height="16" viewBox="0 0 190 16" fill="none" xmlns="http://www.w3.org/2000/svg">
<rect width="29.1622" height="2.91622" rx="1.45811" transform="matrix(-0.869527 0.493885 -0.869527 -0.493885 189.82 1.44043)" fill="#4974FE"/>
<rect width="29.1622" height="2.91622" rx="1.45811" transform="matrix(-0.869527 0.493885 -0.869527 -0.493885 143.801 1.44043)" fill="#4974FE"/>
<rect width="29.1622" height="2.91622" rx="1.45811" transform="matrix(-0.869527 0.493885 -0.869527 -0.493885 97.0527 1.44043)" fill="#4974FE"/>
<rect width="29.1622" height="2.91622" rx="1.45811" transform="matrix(-0.869527 0.493885 -0.869527 -0.493885 51.0334 1.44043)" fill="#4974FE"/>
<rect width="29.1622" height="2.91622" rx="1.45811" transform="matrix(-0.869527 -0.493885 0.869527 -0.493885 164.144 16)" fill="#4974FE"/>
<rect width="29.1622" height="2.91622" rx="1.45811" transform="matrix(-0.869527 -0.493885 0.869527 -0.493885 118.125 16)" fill="#4974FE"/>
<rect width="29.1622" height="2.91622" rx="1.45811" transform="matrix(-0.869527 -0.493885 0.869527 -0.493885 71.3762 16)" fill="#4974FE"/>
<rect width="29.1622" height="2.91622" rx="1.45811" transform="matrix(-0.869527 -0.493885 0.869527 -0.493885 25.3572 16)" fill="#4974FE"/>
</svg>
